<svg xmlns="http://www.w3.org/2000/svg" viewBox="0 0 512 512">
  <defs>
    <linearGradient id="g" x1="0" y1="0" x2="1" y2="1">
      <stop offset="0%" stop-color="#d4b483"/>
      <stop offset="100%" stop-color="#a07840"/>
    </linearGradient>
  </defs>
  <rect width="512" height="512" rx="112" fill="#0a0a0a"/>
  <path d="M96 416 L96 96 Q96 64 128 64 L384 64 Q416 64 416 96 L416 304 Q416 336 384 336 L160 336 L96 416Z" fill="none" stroke="url(#g)" stroke-width="20" stroke-linejoin="round"/>
  <rect x="160" y="160" width="32" height="112" rx="8" fill="#22c55e"/>
  <line x1="176" y1="136" x2="176" y2="296" stroke="#22c55e" stroke-width="12" stroke-linecap="round"/>
  <rect x="224" y="128" width="32" height="96" rx="8" fill="#ef4444"/>
  <line x1="240" y1="104" x2="240" y2="248" stroke="#ef4444" stroke-width="12" stroke-linecap="round"/>
  <rect x="288" y="144" width="32" height="80" rx="8" fill="#ef4444"/>
  <line x1="304" y1="112" x2="304" y2="256" stroke="#ef4444" stroke-width="12" stroke-linecap="round"/>
  <rect x="352" y="112" width="32" height="112" rx="8" fill="#ef4444"/>
  <line x1="368" y1="88" x2="368" y2="248" stroke="#ef4444" stroke-width="12" stroke-linecap="round"/>
</svg>
